<svg data-v-0dd9719b="" version="1.0" xmlns="http://www.w3.org/2000/svg" xmlns:xlink="http://www.w3.org/1999/xlink" width="100%" height="100%" viewBox="0 0 340.000000 250.000000" preserveAspectRatio="xMidYMid meet" color-interpolation-filters="sRGB" style="margin: auto;"> <rect data-v-0dd9719b="" x="0" y="0" width="100%" height="100%" fill="#ffffff" fill-opacity="1" class="background"></rect> <rect data-v-0dd9719b="" x="0" y="0" width="100%" height="100%" fill="url(#watermark)" fill-opacity="1" class="watermarklayer"></rect> <g data-v-0dd9719b="" fill="#2f2f2e" class="bordersvg b-d1" transform="translate(46.340003967285156,92.51499938964844)"><polyline stroke="#2f2f2e" stroke-width="3" fill-opacity="0" points="123.65999603271484,20 123.65999603271484,0 0,0 0,64.96999931335449 123.65999603271484,64.96999931335449 123.65999603271484,44.96999931335449"></polyline> <g transform="translate(0,20)"><g><rect data-gra="graph-name-bg" stroke-width="2" class="i-icon-bg" x="0" y="0" width="247.3199920654297" height="24.969999313354492" fill-opacity="0"></rect> </g> <g transform="translate(10,3)"><g data-gra="path-name" fill-rule="" class="tp-name"><g transform="scale(1)"><g><path d="M15.53-10.12L9.49-10.12C8.85-10.12 8.69-9.82 8.69-9.32L8.69-7.17C8.69-6.68 8.85-6.37 9.49-6.37L11.97-6.37C11.97-4.25 10.7-3.42 8.91-3.42 7.09-3.42 5.88-4.44 5.88-6.21L5.88-11.75C5.88-13.52 7.09-14.73 8.91-14.73 10.76-14.73 11.75-13.9 12.05-13.05 12.19-12.66 12.08-12.11 12.85-12.11L15.53-12.11C16.16-12.11 16.33-12.22 16.33-12.88 16.33-16.58 12.36-18.56 8.91-18.56 5.65-18.56 1.49-16.72 1.49-12.36L1.49-5.57C1.49-1.24 5.65 0.41 8.91 0.41 12.05 0.41 16.08-1.35 16.33-5.32L16.33-9.32C16.33-9.82 16.16-10.12 15.53-10.12ZM35.47-0.77L29.38-17.3C29.13-17.87 28.85-18.15 28.25-18.15L25.6-18.15C24.99-18.15 24.69-17.87 24.47-17.3L18.34-0.77C18.21-0.44 18.21 0 18.81 0L21.71 0C22.32 0 22.54-0.17 22.76-0.83L23.53-3.01 30.29-3.01 31.06-0.83C31.28-0.17 31.5 0 32.11 0L35 0C35.61 0 35.61-0.44 35.47-0.77ZM24.85-6.87L26.92-12.96 28.99-6.87ZM54.2-18.18L51.56-18.18C50.65-18.18 50.51-17.57 50.31-17.24L46.51-10.45 42.73-17.24C42.51-17.57 42.4-18.18 41.46-18.18L38.73-18.18C38.09-18.18 37.93-17.87 37.93-17.38L37.93-0.8C37.93-0.17 38.23 0 38.73 0L41.46 0C41.96 0 42.26-0.17 42.26-0.8L42.26-10.15 45.05-5.32C45.18-5.1 45.4-4.74 45.82-4.74L47.2-4.74C47.61-4.74 47.86-5.1 48-5.32L50.76-10.15 50.76-0.8C50.76-0.17 51.06 0 51.56 0L54.2 0C54.7 0 55-0.17 55-0.8L55-17.38C55-17.87 54.84-18.18 54.2-18.18ZM72.24-3.86L63.44-3.86 63.44-7.5 70.84-7.5C71.47-7.5 71.64-7.81 71.64-8.3L71.64-10.45C71.64-10.95 71.47-11.25 70.84-11.25L63.44-11.25 63.44-14.26 71.78-14.26C72.41-14.26 72.57-14.56 72.57-15.06L72.57-17.35C72.57-17.85 72.41-18.15 71.78-18.15L59.89-18.15C59.25-18.15 59.09-17.85 59.09-17.35L59.09-0.8C59.09-0.3 59.25 0 59.89 0L72.24 0C72.88 0 73.04-0.3 73.04-0.8L73.04-3.06C73.04-3.56 72.88-3.86 72.24-3.86ZM91.25-0.88L87.36-6.54C89.07-7.12 91.19-9.13 91.19-12.03 91.19-13.79 90.62-15.36 89.59-16.36 88.44-17.52 87.11-18.12 84.11-18.12L77.15-18.12C76.52-18.12 76.38-17.82 76.38-17.32L76.38-0.8C76.38-0.17 76.66 0 77.15 0L79.88 0C80.38 0 80.68-0.17 80.68-0.8L80.68-14.26 84.35-14.26C85.79-14.26 86.89-13.35 86.89-11.92 86.89-10.62 85.62-9.68 84.27-9.68L83.72-9.68C83.08-9.68 82.92-9.38 82.92-8.88L82.92-6.68C82.92-5.9 82.97-5.6 83.22-5.27L86.2-0.83C86.59-0.25 86.92 0 87.58 0L90.84 0C91.36 0 91.5-0.5 91.25-0.88ZM110.12-3.78L108.38-3.78 108.38-14.32 110.03-14.32C110.67-14.32 110.83-14.62 110.83-15.12L110.83-17.35C110.83-17.85 110.67-18.15 110.03-18.15L102.37-18.15C101.73-18.15 101.57-17.85 101.57-17.35L101.57-15.12C101.57-14.62 101.73-14.32 102.37-14.32L104.05-14.32 104.05-3.78 102.31-3.78C101.68-3.78 101.51-3.48 101.51-2.98L101.51-0.8C101.51-0.3 101.68 0 102.31 0L110.12 0C110.75 0 110.92-0.3 110.92-0.8L110.92-2.98C110.92-3.48 110.75-3.78 110.12-3.78ZM128.41-18.15L125.76-18.15C125.26-18.15 124.96-17.99 124.96-17.35L124.96-7.78 119.11-17.21C118.75-17.76 118.56-18.15 117.87-18.15L115.28-18.15C114.64-18.15 114.48-17.85 114.48-17.35L114.48-0.8C114.48-0.17 114.78 0 115.28 0L118.01 0C118.5 0 118.81-0.17 118.81-0.8L118.81-10.4 124.65-0.94C125.01-0.39 125.21 0 125.9 0L128.41 0C129.04 0 129.21-0.3 129.21-0.8L129.21-17.35C129.21-17.99 128.9-18.15 128.41-18.15ZM142.42-10.54C141.32-10.98 137.26-11.59 137.26-13.27 137.26-14.51 138.78-14.87 139.69-14.87 140.52-14.87 141.51-14.62 142.03-14.12 142.36-13.79 142.5-13.57 142.61-13.3 142.75-12.94 142.83-12.55 143.36-12.55L146.06-12.55C146.69-12.55 146.86-12.66 146.86-13.32 146.86-16.96 143.03-18.56 139.52-18.56 136.07-18.43 132.82-16.66 132.82-13.08 132.82-9.57 135.38-8.47 138.17-7.59 140.52-6.84 142.97-6.81 142.97-5.27 142.97-3.72 141.76-3.39 140.27-3.39 139.25-3.39 138.12-3.64 137.56-4.3 137.21-4.72 137.07-5.08 137.04-5.43 136.98-6.12 136.68-6.21 136.05-6.21L133.37-6.21C132.74-6.21 132.57-6.07 132.57-5.43 132.57-1.57 136.54 0.41 139.99 0.41 144.24 0.41 147.33-1.46 147.33-5.38 147.33-9.13 144.41-9.93 142.42-10.54ZM158.45-3.78L156.71-3.78 156.71-14.32 158.36-14.32C159-14.32 159.16-14.62 159.16-15.12L159.16-17.35C159.16-17.85 159-18.15 158.36-18.15L150.69-18.15C150.06-18.15 149.89-17.85 149.89-17.35L149.89-15.12C149.89-14.62 150.06-14.32 150.69-14.32L152.38-14.32 152.38-3.78 150.64-3.78C150-3.78 149.84-3.48 149.84-2.98L149.84-0.8C149.84-0.3 150 0 150.64 0L158.45 0C159.08 0 159.25-0.3 159.25-0.8L159.25-2.98C159.25-3.48 159.08-3.78 158.45-3.78ZM176.29-10.12L170.25-10.12C169.62-10.12 169.45-9.82 169.45-9.32L169.45-7.17C169.45-6.68 169.62-6.37 170.25-6.37L172.73-6.37C172.73-4.25 171.47-3.42 169.67-3.42 167.85-3.42 166.64-4.44 166.64-6.21L166.64-11.75C166.64-13.52 167.85-14.73 169.67-14.73 171.52-14.73 172.51-13.9 172.82-13.05 172.96-12.66 172.84-12.11 173.62-12.11L176.29-12.11C176.93-12.11 177.09-12.22 177.09-12.88 177.09-16.58 173.12-18.56 169.67-18.56 166.42-18.56 162.25-16.72 162.25-12.36L162.25-5.57C162.25-1.24 166.42 0.41 169.67 0.41 172.82 0.41 176.84-1.35 177.09-5.32L177.09-9.32C177.09-9.82 176.93-10.12 176.29-10.12ZM194.64-18.15L191.91-18.15C191.41-18.15 191.11-17.99 191.11-17.35L191.11-11.12 184.95-11.12 184.95-17.35C184.95-17.99 184.68-18.15 184.15-18.15L181.42-18.15C180.93-18.15 180.62-17.99 180.62-17.35L180.62-0.8C180.62-0.17 180.93 0 181.42 0L184.15 0C184.68 0 184.95-0.17 184.95-0.8L184.95-7.03 191.11-7.03 191.11-0.8C191.11-0.17 191.41 0 191.91 0L194.64 0C195.13 0 195.44-0.17 195.44-0.8L195.44-17.35C195.44-17.99 195.13-18.15 194.64-18.15ZM211.79-18.15L198.99-18.15C198.36-18.15 198.2-17.85 198.2-17.35L198.2-15.06C198.2-14.56 198.36-14.26 198.99-14.26L203.24-14.26 203.24-0.8C203.24-0.17 203.55 0 204.04 0L206.77 0C207.27 0 207.57-0.17 207.57-0.8L207.57-14.26 211.79-14.26C212.43-14.26 212.59-14.56 212.59-15.06L212.59-17.35C212.59-17.85 212.43-18.15 211.79-18.15ZM223.9-10.54C222.8-10.98 218.75-11.59 218.75-13.27 218.75-14.51 220.26-14.87 221.17-14.87 222-14.87 222.99-14.62 223.52-14.12 223.85-13.79 223.99-13.57 224.1-13.3 224.23-12.94 224.32-12.55 224.84-12.55L227.54-12.55C228.18-12.55 228.34-12.66 228.34-13.32 228.34-16.96 224.51-18.56 221.01-18.56 217.56-18.43 214.3-16.66 214.3-13.08 214.3-9.57 216.87-8.47 219.66-7.59 222-6.84 224.46-6.81 224.46-5.27 224.46-3.72 223.24-3.39 221.75-3.39 220.73-3.39 219.6-3.64 219.05-4.3 218.69-4.72 218.55-5.08 218.52-5.43 218.47-6.12 218.17-6.21 217.53-6.21L214.86-6.21C214.22-6.21 214.06-6.07 214.06-5.43 214.06-1.57 218.03 0.41 221.48 0.41 225.72 0.41 228.81-1.46 228.81-5.38 228.81-9.13 225.89-9.93 223.9-10.54Z" transform="translate(-1.4900000095367432, 18.559999465942383)"></path></g></g></g></g></g></g><defs v-gra="od"></defs></svg>